<?xml version="1.0" encoding="utf-8"?>
<svg version="1.1" xmlns="http://www.w3.org/2000/svg" xmlns:xlink="http://www.w3.org/1999/xlink" x="0px" y="0px"
	 viewBox="0 0 212 98.2" style="enable-background:new 0 0 212 98.2;" xml:space="preserve" width="212" height="98.2">
<style type="text/css">
	.st0{opacity:0.9;fill:#FFFFFF;}
	.st1{fill:url(#SVGID_1_);}
	.st2{opacity:0.75;fill:#FFFFFF;}
	.st3{fill:#E20D17;}
	.st4{opacity:0.85;fill:#F59E00;}
</style>
<g id="matercard-white">
</g>
<g id="visa-white">
	<path class="st0" d="M178.5,81.3l-7.1,16.9h-4.6l-3.5-13.5c-0.2-0.8-0.4-1.1-1-1.5c-1-0.6-2.8-1.1-4.3-1.4l0.1-0.5h7.4
		c0.9,0,1.8,0.6,2,1.7l1.8,9.8l4.5-11.5H178.5z M196.6,92.7c0-4.5-6.2-4.7-6.1-6.7c0-0.6,0.6-1.2,1.9-1.4c0.6-0.1,2.3-0.1,4.3,0.8
		l0.8-3.6c-1.1-0.4-2.4-0.7-4.1-0.7c-4.3,0-7.3,2.3-7.4,5.6c0,2.4,2.2,3.8,3.8,4.6c1.7,0.8,2.3,1.4,2.3,2.1c0,1.1-1.4,1.6-2.6,1.7
		c-2.2,0-3.5-0.6-4.5-1.1l-0.8,3.7c1,0.5,2.9,0.9,4.9,0.9C193.6,98.4,196.6,96.2,196.6,92.7 M208,98.2h4l-3.5-16.9h-3.7
		c-0.8,0-1.5,0.5-1.9,1.2l-6.5,15.6h4.6l0.9-2.5h5.6L208,98.2z M203.1,92.2l2.3-6.3l1.3,6.3H203.1z M184.7,81.3l-3.6,16.9h-4.4
		l3.6-16.9H184.7z"/>
</g>
<g id="visa_1_">
	<linearGradient id="SVGID_1_" gradientUnits="userSpaceOnUse" x1="50" y1="38.7198" x2="104" y2="38.7198">
		<stop  offset="0" style="stop-color:#241F5D"/>
		<stop  offset="1" style="stop-color:#034EA1"/>
	</linearGradient>
	<path class="st1" d="M70.5,30.3l-7.1,16.9h-4.6l-3.5-13.5c-0.2-0.8-0.4-1.1-1-1.5c-1-0.6-2.8-1.1-4.3-1.4l0.1-0.5h7.4
		c0.9,0,1.8,0.6,2,1.7l1.8,9.8l4.5-11.5H70.5z M88.6,41.7c0-4.5-6.2-4.7-6.1-6.7c0-0.6,0.6-1.2,1.9-1.4c0.6-0.1,2.3-0.1,4.3,0.8
		l0.8-3.6C88.3,30.4,87,30,85.3,30c-4.3,0-7.3,2.3-7.4,5.6c0,2.4,2.2,3.8,3.8,4.6c1.7,0.8,2.3,1.4,2.3,2.1c0,1.1-1.4,1.6-2.6,1.7
		c-2.2,0-3.5-0.6-4.5-1.1l-0.8,3.7c1,0.5,2.9,0.9,4.9,0.9C85.6,47.4,88.6,45.2,88.6,41.7 M100,47.2h4l-3.5-16.9h-3.7
		c-0.8,0-1.5,0.5-1.9,1.2l-6.5,15.6h4.6l0.9-2.5h5.6L100,47.2z M95.1,41.2l2.3-6.3l1.3,6.3H95.1z M76.7,30.3l-3.6,16.9h-4.4
		l3.6-16.9H76.7z"/>
</g>
<g id="mastercard-white_1_">
	<g>
		<circle class="st0" cx="123" cy="65" r="15"/>
		<circle class="st2" cx="143" cy="65" r="15"/>
	</g>
</g>
<g id="my_mastercard">
	<g>
		<circle class="st3" cx="15" cy="15" r="15"/>
		<circle class="st4" cx="35" cy="15" r="15"/>
	</g>
</g>
<g id="mastercard-white">
</g>
<g id="visa">
</g>
</svg>
